<?xml version="1.0" encoding="UTF-8"?>
<svg id="_Слой_2" data-name="Слой 2" xmlns="http://www.w3.org/2000/svg" viewBox="0 0 400 400">
  <defs>
    <style>
      .cls-1 {
        fill: #fff;
      }

      .cls-1, .cls-2 {
        stroke-width: 0px;
      }

      .cls-2 {
        fill: #101010;
      }
    </style>
  </defs>
  <g id="_Слой_2-2" data-name="Слой 2">
    <g>
      <circle class="cls-2" cx="200" cy="200" r="200"/>
      <g>
        <g>
          <path class="cls-1" d="m152.46,179.07v37.97c-7.21-9.5-18.69-14.92-32.13-14.92-21.47,0-40.33,16.88-40.33,42.46s18.86,42.43,40.33,42.43c13.44,0,24.92-5.41,32.13-14.92v12.79h12.46v-91.31c-5.11-3.91-9.34-8.83-12.46-14.51Zm-30.16,96.8c-16.72,0-30.17-12.13-30.17-31.29s13.45-31.47,30.17-31.47c15.25,0,30.16,12.13,30.16,31.47s-14.92,31.29-30.16,31.29Z"/>
          <path class="cls-1" d="m250.99,242.46c-.82-24.1-17.87-40.33-39.67-40.33s-41.81,16.72-41.81,42.62,19.51,42.26,40.99,42.26c17.54,0,31.26-8.22,37.93-23.93l-11.26-2.65c-5.85,11.58-15.74,15.6-26.67,15.6-13.93,0-27.7-10.82-28.85-28.99h69.35v-4.59Zm-68.86-4.75c2.46-15.9,16.07-24.59,29.18-24.59s24.75,8.69,27.05,24.59h-56.23Z"/>
          <path class="cls-1" d="m299.18,240.97l-19.51-4.26c-7.87-1.81-12.3-4.76-12.3-11.15,0-7.7,6.4-13.28,17.87-13.28s19.67,6.07,21.31,14.92l11.97-2.62c-2.95-13.12-14.75-22.46-32.95-22.46s-30.65,9.83-30.65,24.43c0,11.15,7.54,17.87,20.98,20.66l18.52,4.1c8.2,1.8,13.28,4.91,13.28,11.63,0,8.36-7.7,13.77-19.34,13.77-12.79,0-22.63-5.74-23.77-16.39l-12.46,2.79c1.97,15.74,16.72,23.93,35.25,23.93s32.62-9.01,32.62-24.91c0-12.29-9.01-18.53-20.81-21.15Z"/>
        </g>
        <path class="cls-1" d="m320,114.78v40.72c0,25.16-15.44,42.05-38.42,42.05s-38.8-16.88-38.8-42.05v-40.72h12.4v40.72c0,18.25,10.36,30.05,26.39,30.05s26.01-11.8,26.01-30.05v-40.72h12.41Z"/>
        <path class="cls-1" d="m208.33,114.78c-4.07-1.19-8.41-1.81-12.93-1.81s-8.96.62-13.07,1.81c-17.51,5.05-29.88,20.26-29.88,40.31,0,24.76,18.85,42.46,42.95,42.46s42.79-17.7,42.79-42.46c0-20.05-12.48-35.26-29.86-40.31Zm-12.93,71.79c-16.72,0-30.82-12.79-30.82-31.48s14.09-31.15,30.82-31.15,30.49,12.62,30.49,31.15-13.93,31.48-30.49,31.48Z"/>
        <path class="cls-1" d="m145.9,114.78l-23.06,50.71h0s-28.31-50.71-28.31-50.71h-14.53,0s36.34,64.98,36.34,64.98h0s-3.41,7.5-3.41,7.5h0s-3.26,7.19-3.26,7.19l-1.48,3.23c3.85-1.01,7.9-1.56,12.13-1.56.82,0,1.64.03,2.43.05l2.69-5.92,5.04-11.08h0s29.33-64.4,29.33-64.4h-13.93Z"/>
      </g>
    </g>
  </g>
</svg>